<?xml version="1.0" encoding="utf-8"?>
<!-- Generator: Adobe Illustrator 21.1.0, SVG Export Plug-In . SVG Version: 6.00 Build 0)  -->
<svg version="1.1" id="Layer_1" xmlns="http://www.w3.org/2000/svg" xmlns:xlink="http://www.w3.org/1999/xlink" x="0px" y="0px"
	 viewBox="0 0 16 16" style="enable-background:new 0 0 16 16;" xml:space="preserve">
<style type="text/css">
	.st0{opacity:0.5;fill:#83807E;}
</style>
<path class="st0" d="M16,12.7L11.3,8L16,3.4L16,12.7C16,12.7,16,12.7,16,12.7z M0.8,13.6l4.7-4.7l1,1C7,10.3,7.4,10.6,8,10.6
	c0.6,0,1-0.3,1.4-0.6l1-1l4.7,4.7H0.8L0.8,13.6z M15.2,2.4L8.5,9.1C8.3,9.3,8.2,9.3,8,9.3S7.6,9.3,7.5,9.1L0.8,2.4H15.2L15.2,2.4z
	 M0,3.4L4.7,8L0,12.7V3.4L0,3.4z"/>
</svg>
