<?xml version="1.0" encoding="utf-8"?>
<!-- Generator: Adobe Illustrator 21.1.0, SVG Export Plug-In . SVG Version: 6.00 Build 0)  -->
<svg version="1.1" id="Layer_1" xmlns="http://www.w3.org/2000/svg" xmlns:xlink="http://www.w3.org/1999/xlink" x="0px" y="0px"
	 viewBox="0 0 16 16" style="enable-background:new 0 0 16 16;" xml:space="preserve">
<style type="text/css">
	.st0{opacity:0.5;}
	.st1{fill:#83807E;}
</style>
<g class="st0">
	<path class="st1" d="M11,0.1c0.7,0.4,0.5,1.5,0.4,2.2c-0.1,0.7-0.2,1.6-0.9,2.1c-0.4,0.3-0.9,0.2-1.3,0.2C8.8,4.7,8.3,4.5,8,4.8
		C7.4,5.2,7.3,6,7.2,6.4C7,7.5,7,8.5,7.2,9.6c0.1,0.5,0.2,1.3,0.8,1.6c0.8,0.4,1.7-0.2,2.5,0.3c0.8,0.5,0.8,1.4,0.9,2.1
		c0.1,0.7,0.4,1.6-0.2,2.1C11,16,10.5,16,10.1,16C9.7,16,9.4,16,9,16c-0.9-0.1-1.7-0.5-2.4-1.2c-0.7-0.7-1.1-1.4-1.4-2.2
		c-0.6-1.5-0.7-3-0.8-4.6c0-1.5,0.1-3.2,0.7-4.7C5.9,1.5,7.4,0.3,9,0c0.3,0,0.6,0,1,0C10.3,0,10.6,0,11,0.1z"/>
</g>
</svg>
